<svg xmlns="http://www.w3.org/2000/svg" xmlns:xlink="http://www.w3.org/1999/xlink" width="500" zoomAndPan="magnify" viewBox="0 0 375 374.999991" height="500" preserveAspectRatio="xMidYMid meet" version="1.0"><defs><g/><clipPath id="1a600d2b39"><path d="M 18.988281 26.871094 L 348 26.871094 L 348 348.128906 L 18.988281 348.128906 Z M 18.988281 26.871094 " clip-rule="nonzero"/></clipPath><clipPath id="a551d75f59"><path d="M 183.558594 26.871094 C 92.667969 26.871094 18.988281 98.785156 18.988281 187.5 C 18.988281 276.214844 92.667969 348.128906 183.558594 348.128906 C 274.449219 348.128906 348.128906 276.214844 348.128906 187.5 C 348.128906 98.785156 274.449219 26.871094 183.558594 26.871094 Z M 183.558594 26.871094 " clip-rule="nonzero"/></clipPath></defs><g clip-path="url(#1a600d2b39)"><g clip-path="url(#a551d75f59)"><path fill="#000000" d="M 18.988281 26.871094 L 347.777344 26.871094 L 347.777344 348.128906 L 18.988281 348.128906 Z M 18.988281 26.871094 " fill-opacity="1" fill-rule="nonzero"/></g></g><g fill="#ffffff" fill-opacity="1"><g transform="translate(147.088472, 251.316655)"><g><path d="M 18.890625 -116.5625 C 25.773438 -119.414062 32.394531 -120.84375 38.75 -120.84375 C 44.039062 -120.84375 49.488281 -118.882812 55.09375 -114.96875 C 58.164062 -112.851562 61.609375 -108.722656 65.421875 -102.578125 C 67.960938 -98.347656 71.191406 -90.675781 75.109375 -79.5625 L 94.484375 -24.609375 C 98.929688 -12.328125 103.457031 -2.5625 108.0625 4.6875 C 112.664062 11.9375 116.875 17.382812 120.6875 21.03125 C 124.5 24.6875 128.46875 27.253906 132.59375 28.734375 C 136.71875 30.222656 140.128906 30.96875 142.828125 30.96875 C 145.535156 30.96875 147.945312 30.753906 150.0625 30.328125 L 150.21875 31.921875 C 145.132812 33.609375 140.15625 34.453125 135.28125 34.453125 C 130.414062 34.453125 125.546875 33.207031 120.671875 30.71875 C 115.804688 28.238281 111.257812 24.773438 107.03125 20.328125 C 97.925781 11.117188 90.195312 -2.90625 83.84375 -21.75 L 77.65625 -39.859375 L 34.140625 -39.859375 L 23.1875 -11.59375 C 22.65625 -10.320312 22.390625 -9.050781 22.390625 -7.78125 C 22.390625 -6.507812 22.941406 -5.160156 24.046875 -3.734375 C 25.160156 -2.304688 26.882812 -1.59375 29.21875 -1.59375 L 30.484375 -1.59375 L 30.484375 0 L -1.4375 0 L -1.4375 -1.59375 L 0 -1.59375 C 2.539062 -1.59375 5.023438 -2.359375 7.453125 -3.890625 C 9.890625 -5.421875 11.90625 -7.722656 13.5 -10.796875 L 52.875 -105.125 C 47.15625 -113.269531 40.0625 -117.34375 31.59375 -117.34375 C 27.78125 -117.34375 23.707031 -116.550781 19.375 -114.96875 Z M 35.890625 -44.625 L 76.0625 -44.625 L 63.515625 -81.625 C 61.078125 -88.71875 58.851562 -94.273438 56.84375 -98.296875 Z M 35.890625 -44.625 "/></g></g></g><g fill="#ffffff" fill-opacity="1"><g transform="translate(104.079776, 219.683323)"><g><path d="M 18.890625 -42.234375 C 13.390625 -35.035156 10.640625 -27.253906 10.640625 -18.890625 C 10.640625 -8.941406 14.820312 -1.21875 23.1875 4.28125 C 28.050781 7.5625 33.578125 9.203125 39.765625 9.203125 C 45.960938 9.203125 51.335938 7.988281 55.890625 5.5625 C 64.472656 1.113281 69.289062 -6.347656 70.34375 -16.828125 C 70.445312 -17.566406 70.5 -18.3125 70.5 -19.0625 C 70.5 -22.976562 69.414062 -27.210938 67.25 -31.765625 C 65.082031 -36.316406 61.5625 -40.492188 56.6875 -44.296875 L 28.109375 -66.859375 C 21.859375 -71.722656 18.734375 -78.019531 18.734375 -85.75 C 18.734375 -93.476562 21.222656 -100.015625 26.203125 -105.359375 C 31.179688 -110.703125 37.90625 -113.375 46.375 -113.375 C 50.601562 -113.375 55.207031 -112.847656 60.1875 -111.796875 L 66.53125 -111.796875 L 66.859375 -92.265625 L 65.265625 -92.265625 C 65.160156 -97.347656 63.332031 -101.34375 59.78125 -104.25 C 56.238281 -107.15625 51.789062 -108.609375 46.4375 -108.609375 C 41.09375 -108.609375 36.617188 -106.835938 33.015625 -103.296875 C 29.421875 -99.753906 27.625 -95.203125 27.625 -89.640625 C 27.625 -84.078125 29.957031 -79.445312 34.625 -75.75 L 64 -52.5625 C 75.644531 -43.351562 81.46875 -32.238281 81.46875 -19.21875 C 81.46875 -9.476562 77.601562 -1.113281 69.875 5.875 C 63.195312 11.90625 54.300781 14.921875 43.1875 14.921875 C 36.414062 14.921875 30.382812 13.648438 25.09375 11.109375 C 15.132812 6.453125 9.148438 -1.484375 7.140625 -12.703125 C 6.828125 -14.398438 6.671875 -16.546875 6.671875 -19.140625 C 6.671875 -21.734375 7.410156 -25.273438 8.890625 -29.765625 C 10.367188 -34.265625 13.226562 -38.789062 17.46875 -43.34375 Z M 18.890625 -42.234375 "/></g></g></g><g fill="#ffffff" fill-opacity="1"><g transform="translate(84.749461, 80.94004)"><g><path d="M 3.515625 -2.953125 C 2.546875 -2.085938 1.59375 -1.628906 0.65625 -1.578125 C -0.269531 -1.523438 -1.148438 -1.882812 -1.984375 -2.65625 L -0.75 -4.140625 C 0.28125 -3.265625 1.347656 -3.316406 2.453125 -4.296875 C 2.921875 -4.722656 3.203125 -5.148438 3.296875 -5.578125 C 3.390625 -6.003906 3.285156 -6.390625 2.984375 -6.734375 C 2.703125 -7.035156 2.359375 -7.148438 1.953125 -7.078125 C 1.546875 -7.003906 0.988281 -6.773438 0.28125 -6.390625 C -0.382812 -6.035156 -0.992188 -5.773438 -1.546875 -5.609375 C -2.097656 -5.441406 -2.613281 -5.421875 -3.09375 -5.546875 C -3.570312 -5.679688 -4.039062 -6 -4.5 -6.5 C -4.9375 -6.988281 -5.195312 -7.535156 -5.28125 -8.140625 C -5.375 -8.742188 -5.296875 -9.351562 -5.046875 -9.96875 C -4.796875 -10.582031 -4.378906 -11.148438 -3.796875 -11.671875 C -3.023438 -12.359375 -2.21875 -12.71875 -1.375 -12.75 C -0.53125 -12.78125 0.25 -12.476562 0.96875 -11.84375 L -0.15625 -10.453125 C -1.039062 -11.117188 -1.894531 -11.078125 -2.71875 -10.328125 C -3.125 -9.972656 -3.359375 -9.578125 -3.421875 -9.140625 C -3.484375 -8.703125 -3.363281 -8.3125 -3.0625 -7.96875 C -2.757812 -7.632812 -2.40625 -7.488281 -2 -7.53125 C -1.59375 -7.570312 -1.023438 -7.785156 -0.296875 -8.171875 C 0.347656 -8.523438 0.9375 -8.789062 1.46875 -8.96875 C 2.007812 -9.144531 2.515625 -9.179688 2.984375 -9.078125 C 3.460938 -8.984375 3.929688 -8.679688 4.390625 -8.171875 C 4.828125 -7.679688 5.082031 -7.140625 5.15625 -6.546875 C 5.226562 -5.953125 5.125 -5.34375 4.84375 -4.71875 C 4.570312 -4.09375 4.128906 -3.503906 3.515625 -2.953125 Z M 3.515625 -2.953125 "/></g></g></g><g fill="#ffffff" fill-opacity="1"><g transform="translate(100.411229, 67.929163)"><g><path d="M -0.125 0.09375 L -2.3125 -11.765625 L -0.875 -12.71875 L 9.015625 -5.984375 L 7.296875 -4.84375 L 5.0625 -6.40625 L 1.046875 -3.734375 L 1.59375 -1.046875 Z M 0.6875 -5.546875 L 3.59375 -7.46875 L -0.25 -10.125 Z M 0.6875 -5.546875 "/></g></g></g><g fill="#ffffff" fill-opacity="1"><g transform="translate(119.147792, 56.521939)"><g><path d="M 1.03125 -0.484375 L -3.6875 -10.515625 L -1.84375 -11.375 L 0.265625 -6.90625 L 2.3125 -13.328125 L 4.546875 -14.390625 L 2.1875 -7.171875 C 2.675781 -7.148438 3.171875 -6.984375 3.671875 -6.671875 L 5.625 -5.453125 C 5.96875 -5.242188 6.253906 -5.125 6.484375 -5.09375 C 6.722656 -5.0625 6.984375 -5.113281 7.265625 -5.25 C 7.609375 -5.40625 7.863281 -5.628906 8.03125 -5.921875 L 9.140625 -4.703125 C 9.023438 -4.460938 8.847656 -4.238281 8.609375 -4.03125 C 8.367188 -3.820312 8.097656 -3.648438 7.796875 -3.515625 C 6.742188 -3.015625 5.703125 -3.085938 4.671875 -3.734375 L 2.140625 -5.28125 C 1.929688 -5.425781 1.734375 -5.519531 1.546875 -5.5625 C 1.359375 -5.601562 1.144531 -5.597656 0.90625 -5.546875 L 2.875 -1.34375 Z M 1.03125 -0.484375 "/></g></g></g><g fill="#ffffff" fill-opacity="1"><g transform="translate(138.536515, 48.302929)"><g><path d="M 4.4375 -1.203125 C 3.195312 -0.828125 2.140625 -0.8125 1.265625 -1.15625 C 0.398438 -1.5 -0.25 -2.195312 -0.6875 -3.25 L 1.0625 -4.0625 C 1.625 -2.851562 2.609375 -2.460938 4.015625 -2.890625 C 4.617188 -3.078125 5.050781 -3.34375 5.3125 -3.6875 C 5.582031 -4.03125 5.648438 -4.421875 5.515625 -4.859375 C 5.390625 -5.265625 5.125 -5.515625 4.71875 -5.609375 C 4.320312 -5.710938 3.722656 -5.738281 2.921875 -5.6875 C 2.171875 -5.644531 1.507812 -5.660156 0.9375 -5.734375 C 0.375 -5.816406 -0.0976562 -6.019531 -0.484375 -6.34375 C -0.867188 -6.664062 -1.164062 -7.148438 -1.375 -7.796875 C -1.5625 -8.421875 -1.566406 -9.023438 -1.390625 -9.609375 C -1.222656 -10.203125 -0.894531 -10.722656 -0.40625 -11.171875 C 0.0703125 -11.617188 0.6875 -11.957031 1.4375 -12.1875 C 2.425781 -12.488281 3.304688 -12.476562 4.078125 -12.15625 C 4.859375 -11.832031 5.445312 -11.234375 5.84375 -10.359375 L 4.25 -9.5625 C 3.71875 -10.53125 2.914062 -10.847656 1.84375 -10.515625 C 1.332031 -10.359375 0.953125 -10.09375 0.703125 -9.71875 C 0.460938 -9.351562 0.410156 -8.953125 0.546875 -8.515625 C 0.671875 -8.085938 0.929688 -7.804688 1.328125 -7.671875 C 1.722656 -7.535156 2.332031 -7.492188 3.15625 -7.546875 C 3.882812 -7.609375 4.53125 -7.609375 5.09375 -7.546875 C 5.65625 -7.484375 6.128906 -7.300781 6.515625 -7 C 6.898438 -6.707031 7.195312 -6.234375 7.40625 -5.578125 C 7.59375 -4.960938 7.59375 -4.367188 7.40625 -3.796875 C 7.226562 -3.222656 6.882812 -2.707031 6.375 -2.25 C 5.875 -1.800781 5.226562 -1.453125 4.4375 -1.203125 Z M 4.4375 -1.203125 "/></g></g></g><g fill="#ffffff" fill-opacity="1"><g transform="translate(158.189473, 43.023123)"><g><path d="M 1.125 -0.171875 L -0.546875 -11.125 L 1.46875 -11.4375 L 2.15625 -6.90625 L 7.328125 -7.6875 L 6.640625 -12.21875 L 8.65625 -12.53125 L 10.328125 -1.578125 L 8.3125 -1.265625 L 7.59375 -5.9375 L 2.421875 -5.15625 L 3.140625 -0.484375 Z M 1.125 -0.171875 "/></g></g></g><g fill="#ffffff" fill-opacity="1"><g transform="translate(180.799572, 40.46304)"><g><path d="M -0.15625 0 L 4.578125 -11.078125 L 6.296875 -11.078125 L 10.828125 0 L 8.765625 0 L 7.765625 -2.53125 L 2.9375 -2.53125 L 1.90625 0 Z M 3.640625 -4.234375 L 7.125 -4.234375 L 5.40625 -8.578125 Z M 3.640625 -4.234375 "/></g></g></g><g fill="#ffffff" fill-opacity="1"><g transform="translate(202.663458, 41.222823)"><g><path d="M 1.0625 0.171875 L 3.28125 -10.6875 L 5.015625 -10.40625 L 7.640625 -1.328125 L 13 -9.09375 L 14.75 -8.8125 L 13.296875 2.1875 L 11.359375 1.859375 L 12.265625 -4.984375 L 7.890625 1.296875 L 6.40625 1.046875 L 4.296875 -6.234375 L 2.921875 0.484375 Z M 1.0625 0.171875 "/></g></g></g><g fill="#ffffff" fill-opacity="1"><g transform="translate(227.908172, 46.535883)"><g/></g></g><g fill="#ffffff" fill-opacity="1"><g transform="translate(242.165603, 51.49142)"><g><path d="M -0.140625 -0.0625 L 8.765625 -8.171875 L 10.328125 -7.46875 L 9.84375 4.5 L 7.96875 3.640625 L 8.109375 0.921875 L 3.71875 -1.078125 L 1.734375 0.796875 Z M 5.078125 -2.34375 L 8.25 -0.90625 L 8.484375 -5.546875 Z M 5.078125 -2.34375 "/></g></g></g><g fill="#ffffff" fill-opacity="1"><g transform="translate(261.757281, 61.383934)"><g><path d="M 3.78125 2.609375 C 2.6875 1.910156 1.988281 1.113281 1.6875 0.21875 C 1.394531 -0.664062 1.507812 -1.609375 2.03125 -2.609375 L 3.796875 -1.828125 C 3.234375 -0.597656 3.566406 0.410156 4.796875 1.203125 C 5.328125 1.546875 5.8125 1.707031 6.25 1.6875 C 6.6875 1.664062 7.03125 1.460938 7.28125 1.078125 C 7.507812 0.722656 7.53125 0.363281 7.34375 0 C 7.15625 -0.375 6.785156 -0.847656 6.234375 -1.421875 C 5.722656 -1.972656 5.3125 -2.488281 5 -2.96875 C 4.695312 -3.457031 4.539062 -3.953125 4.53125 -4.453125 C 4.53125 -4.953125 4.710938 -5.488281 5.078125 -6.0625 C 5.429688 -6.613281 5.890625 -7.007812 6.453125 -7.25 C 7.015625 -7.5 7.617188 -7.582031 8.265625 -7.5 C 8.921875 -7.425781 9.578125 -7.175781 10.234375 -6.75 C 11.109375 -6.195312 11.671875 -5.515625 11.921875 -4.703125 C 12.179688 -3.898438 12.101562 -3.070312 11.6875 -2.21875 L 10.03125 -2.921875 C 10.4375 -3.953125 10.171875 -4.769531 9.234375 -5.375 C 8.785156 -5.664062 8.34375 -5.785156 7.90625 -5.734375 C 7.46875 -5.679688 7.125 -5.460938 6.875 -5.078125 C 6.625 -4.691406 6.570312 -4.304688 6.71875 -3.921875 C 6.875 -3.535156 7.238281 -3.050781 7.8125 -2.46875 C 8.332031 -1.925781 8.742188 -1.421875 9.046875 -0.953125 C 9.359375 -0.492188 9.523438 -0.0195312 9.546875 0.46875 C 9.578125 0.957031 9.40625 1.488281 9.03125 2.0625 C 8.6875 2.601562 8.234375 2.988281 7.671875 3.21875 C 7.117188 3.445312 6.503906 3.515625 5.828125 3.421875 C 5.160156 3.328125 4.476562 3.054688 3.78125 2.609375 Z M 3.78125 2.609375 "/></g></g></g><g fill="#ffffff" fill-opacity="1"><g transform="translate(278.457104, 73.069303)"><g><path d="M 3.390625 3.109375 C 2.398438 2.253906 1.816406 1.367188 1.640625 0.453125 C 1.472656 -0.460938 1.71875 -1.382812 2.375 -2.3125 L 4 -1.265625 C 3.269531 -0.140625 3.460938 0.898438 4.578125 1.859375 C 5.054688 2.273438 5.515625 2.5 5.953125 2.53125 C 6.390625 2.570312 6.757812 2.421875 7.0625 2.078125 C 7.332031 1.765625 7.398438 1.410156 7.265625 1.015625 C 7.128906 0.628906 6.832031 0.109375 6.375 -0.546875 C 5.9375 -1.160156 5.597656 -1.726562 5.359375 -2.25 C 5.128906 -2.769531 5.046875 -3.28125 5.109375 -3.78125 C 5.171875 -4.28125 5.425781 -4.785156 5.875 -5.296875 C 6.300781 -5.796875 6.804688 -6.125 7.390625 -6.28125 C 7.984375 -6.445312 8.597656 -6.445312 9.234375 -6.28125 C 9.867188 -6.125 10.484375 -5.789062 11.078125 -5.28125 C 11.859375 -4.601562 12.316406 -3.847656 12.453125 -3.015625 C 12.597656 -2.179688 12.40625 -1.367188 11.875 -0.578125 L 10.359375 -1.5 C 10.890625 -2.457031 10.734375 -3.300781 9.890625 -4.03125 C 9.472656 -4.382812 9.046875 -4.5625 8.609375 -4.5625 C 8.171875 -4.570312 7.804688 -4.40625 7.515625 -4.0625 C 7.210938 -3.726562 7.109375 -3.359375 7.203125 -2.953125 C 7.296875 -2.554688 7.585938 -2.019531 8.078125 -1.34375 C 8.515625 -0.75 8.851562 -0.203125 9.09375 0.296875 C 9.34375 0.796875 9.445312 1.289062 9.40625 1.78125 C 9.363281 2.269531 9.117188 2.773438 8.671875 3.296875 C 8.242188 3.785156 7.738281 4.101562 7.15625 4.25 C 6.570312 4.40625 5.953125 4.382812 5.296875 4.1875 C 4.648438 4 4.015625 3.640625 3.390625 3.109375 Z M 3.390625 3.109375 "/></g></g></g><g fill="#ffffff" fill-opacity="1"><g transform="translate(293.38803, 86.884897)"><g><path d="M 3.859375 4.703125 C 3.109375 3.859375 2.632812 2.988281 2.4375 2.09375 C 2.25 1.195312 2.328125 0.320312 2.671875 -0.53125 C 3.015625 -1.394531 3.625 -2.203125 4.5 -2.953125 C 5.375 -3.710938 6.296875 -4.207031 7.265625 -4.4375 C 8.242188 -4.664062 9.195312 -4.625 10.125 -4.3125 C 11.050781 -4 11.890625 -3.410156 12.640625 -2.546875 C 13.296875 -1.773438 13.703125 -0.945312 13.859375 -0.0625 C 14.015625 0.8125 13.921875 1.675781 13.578125 2.53125 C 13.242188 3.382812 12.660156 4.171875 11.828125 4.890625 C 10.910156 5.671875 9.96875 6.171875 9 6.390625 C 8.03125 6.617188 7.097656 6.585938 6.203125 6.296875 C 5.304688 6.015625 4.523438 5.484375 3.859375 4.703125 Z M 5.203125 3.46875 C 5.628906 3.957031 6.128906 4.285156 6.703125 4.453125 C 7.273438 4.617188 7.882812 4.613281 8.53125 4.4375 C 9.175781 4.257812 9.828125 3.890625 10.484375 3.328125 C 11.328125 2.597656 11.816406 1.804688 11.953125 0.953125 C 12.085938 0.109375 11.847656 -0.671875 11.234375 -1.390625 C 10.785156 -1.898438 10.257812 -2.242188 9.65625 -2.421875 C 9.050781 -2.597656 8.425781 -2.601562 7.78125 -2.4375 C 7.132812 -2.28125 6.503906 -1.9375 5.890625 -1.40625 C 4.992188 -0.644531 4.488281 0.160156 4.375 1.015625 C 4.269531 1.878906 4.546875 2.695312 5.203125 3.46875 Z M 5.203125 3.46875 "/></g></g></g><g fill="#ffffff" fill-opacity="1"><g transform="translate(307.88251, 105.122531)"><g><path d="M 7.40625 7.796875 C 6.550781 7.816406 5.75 7.601562 5 7.15625 C 4.257812 6.71875 3.632812 6.09375 3.125 5.28125 C 2.519531 4.320312 2.191406 3.378906 2.140625 2.453125 C 2.085938 1.535156 2.289062 0.675781 2.75 -0.125 C 3.21875 -0.925781 3.929688 -1.628906 4.890625 -2.234375 C 5.890625 -2.847656 6.890625 -3.1875 7.890625 -3.25 C 8.890625 -3.3125 9.828125 -3.113281 10.703125 -2.65625 C 11.578125 -2.195312 12.316406 -1.488281 12.921875 -0.53125 C 13.421875 0.269531 13.695312 1.054688 13.75 1.828125 C 13.800781 2.597656 13.628906 3.378906 13.234375 4.171875 L 11.453125 3.4375 C 11.753906 2.925781 11.882812 2.410156 11.84375 1.890625 C 11.8125 1.378906 11.648438 0.890625 11.359375 0.421875 C 10.984375 -0.179688 10.503906 -0.617188 9.921875 -0.890625 C 9.347656 -1.171875 8.722656 -1.28125 8.046875 -1.21875 C 7.367188 -1.15625 6.691406 -0.914062 6.015625 -0.5 C 5.035156 0.113281 4.429688 0.847656 4.203125 1.703125 C 3.972656 2.554688 4.140625 3.4375 4.703125 4.34375 C 5.015625 4.84375 5.414062 5.226562 5.90625 5.5 C 6.40625 5.78125 6.972656 5.90625 7.609375 5.875 Z M 7.40625 7.796875 "/></g></g></g><g fill="#ffffff" fill-opacity="1"><g transform="translate(318.594609, 124.005663)"><g><path d="M 0.46875 1.03125 L 10.53125 -3.59375 L 11.390625 -1.75 L 1.328125 2.875 Z M 0.46875 1.03125 "/></g></g></g><g fill="#ffffff" fill-opacity="1"><g transform="translate(324.638752, 138.387824)"><g><path d="M -0.046875 -0.15625 L 11.9375 1.078125 L 12.453125 2.71875 L 3.234375 10.328125 L 2.609375 8.359375 L 4.734375 6.65625 L 3.296875 2.046875 L 0.5625 1.8125 Z M 5.125 2.203125 L 6.171875 5.53125 L 9.796875 2.59375 Z M 5.125 2.203125 "/></g></g></g><g fill="#ffffff" fill-opacity="1"><g transform="translate(330.353192, 159.57999)"><g><path d="M 12.390625 7.3125 L 10.59375 7.34375 L 10.046875 3.96875 L 0.875 5.4375 L 0.546875 3.421875 L 9.71875 1.953125 L 9.15625 -1.5625 L 10.921875 -1.84375 Z M 12.390625 7.3125 "/></g></g></g><g fill="#ffffff" fill-opacity="1"><g transform="translate(332.788194, 179.636436)"><g><path d="M 9.515625 8.0625 L 9.390625 2.921875 L 6.546875 2.984375 L 6.65625 7.875 L 4.90625 7.90625 L 4.796875 3.015625 L 1.8125 3.09375 L 1.9375 8.421875 L 0.1875 8.3125 L 0.03125 1.140625 L 11.109375 0.890625 L 11.265625 8.015625 Z M 9.515625 8.0625 "/></g></g></g><g fill="#ffffff" fill-opacity="1"><g transform="translate(332.470685, 199.693405)"><g><path d="M -0.671875 4.546875 C -0.515625 3.253906 -0.109375 2.28125 0.546875 1.625 C 1.210938 0.96875 2.113281 0.648438 3.25 0.671875 L 3.296875 2.59375 C 1.953125 2.632812 1.191406 3.382812 1.015625 4.84375 C 0.941406 5.476562 1.015625 5.984375 1.234375 6.359375 C 1.453125 6.734375 1.789062 6.945312 2.25 7 C 2.65625 7.050781 2.984375 6.914062 3.234375 6.59375 C 3.484375 6.269531 3.75 5.726562 4.03125 4.96875 C 4.289062 4.269531 4.570312 3.671875 4.875 3.171875 C 5.1875 2.679688 5.5625 2.320312 6 2.09375 C 6.445312 1.875 7.007812 1.804688 7.6875 1.890625 C 8.332031 1.960938 8.890625 2.191406 9.359375 2.578125 C 9.828125 2.972656 10.171875 3.484375 10.390625 4.109375 C 10.609375 4.734375 10.671875 5.4375 10.578125 6.21875 C 10.460938 7.238281 10.097656 8.039062 9.484375 8.625 C 8.878906 9.207031 8.09375 9.5 7.125 9.5 L 7.046875 7.71875 C 8.148438 7.625 8.765625 7.023438 8.890625 5.921875 C 8.953125 5.378906 8.863281 4.925781 8.625 4.5625 C 8.382812 4.195312 8.039062 3.988281 7.59375 3.9375 C 7.144531 3.882812 6.773438 4.007812 6.484375 4.3125 C 6.203125 4.613281 5.921875 5.148438 5.640625 5.921875 C 5.390625 6.617188 5.125 7.210938 4.84375 7.703125 C 4.570312 8.191406 4.222656 8.550781 3.796875 8.78125 C 3.367188 9.019531 2.816406 9.097656 2.140625 9.015625 C 1.492188 8.941406 0.941406 8.707031 0.484375 8.3125 C 0.0351562 7.914062 -0.289062 7.394531 -0.5 6.75 C -0.707031 6.101562 -0.765625 5.367188 -0.671875 4.546875 Z M -0.671875 4.546875 "/></g></g></g></svg>